# This file uses centimeters as units for non-parametric coordinates.

mtllib Cupboards.mtl
g default
v -0.500000 0.000000 1.785305
v 0.500000 0.000000 1.785305
v -0.500000 1.501324 1.785305
v 0.500000 1.501324 1.785305
v -0.500000 1.501324 -1.406045
v 0.500000 1.501324 -1.406045
v -0.500000 0.000000 -1.406045
v 0.500000 0.000000 -1.406045
v -0.500000 1.501324 1.715244
v 0.500000 1.501324 1.715244
v 0.500000 0.000000 1.715244
v -0.500000 0.000000 1.715244
v -0.500000 1.501324 1.633995
v 0.500000 1.501324 1.633995
v 0.500000 0.000000 1.633995
v -0.500000 0.000000 1.633995
v -0.500000 1.501324 0.721522
v 0.500000 1.501324 0.721522
v 0.500000 0.000000 0.721522
v -0.500000 0.000000 0.721522
v -0.500000 1.501324 0.640282
v 0.500000 1.501324 0.640282
v 0.500000 0.000000 0.640282
v -0.500000 0.000000 0.640282
v -0.500000 1.501324 0.552809
v 0.500000 1.501324 0.552809
v 0.500000 0.000000 0.552809
v -0.500000 0.000000 0.552809
v -0.500000 1.501324 -0.342262
v 0.500000 1.501324 -0.342262
v 0.500000 0.000000 -0.342262
v -0.500000 0.000000 -0.342262
v -0.500000 1.501324 -0.413436
v 0.500000 1.501324 -0.413436
v 0.500000 0.000000 -0.413436
v -0.500000 0.000000 -0.413436
v -0.500000 1.501324 -0.505105
v 0.500000 1.501324 -0.505105
v 0.500000 0.000000 -0.505105
v -0.500000 0.000000 -0.505105
v -0.500000 0.161859 1.785305
v 0.500000 0.161859 1.785305
v 0.500000 0.161859 1.715244
v 0.500000 0.161859 1.633995
v 0.500000 0.161859 0.721522
v 0.500000 0.161859 0.640282
v 0.500000 0.161859 0.552809
v 0.500000 0.161859 -0.342262
v 0.500000 0.161859 -0.413436
v 0.500000 0.161859 -0.505105
v 0.500000 0.161859 -1.406045
v -0.500000 0.161859 -1.406045
v -0.500000 0.161859 -0.505105
v -0.500000 0.161859 -0.413436
v -0.500000 0.161859 -0.342262
v -0.500000 0.161859 0.552809
v -0.500000 0.161859 0.640282
v -0.500000 0.161859 0.721522
v -0.500000 0.161859 1.633995
v -0.500000 0.161859 1.715244
v -0.500000 0.662301 1.785305
v 0.500000 0.662301 1.785305
v 0.500000 0.662301 1.715244
v 0.500000 0.662301 1.633995
v 0.500000 0.662301 0.721522
v 0.500000 0.662301 0.640282
v 0.500000 0.662301 0.552809
v 0.500000 0.662301 -0.342262
v 0.500000 0.662301 -0.413436
v 0.500000 0.662301 -0.505105
v 0.500000 0.662301 -1.406045
v -0.500000 0.662301 -1.406045
v -0.500000 0.662301 -0.505105
v -0.500000 0.662301 -0.413436
v -0.500000 0.662301 -0.342262
v -0.500000 0.662301 0.552809
v -0.500000 0.662301 0.640282
v -0.500000 0.662301 0.721522
v -0.500000 0.662301 1.633995
v -0.500000 0.662301 1.715244
vt 0.375000 0.166667
vt 0.625000 0.166667
vt 0.625000 0.250000
vt 0.375000 0.250000
vt 0.375000 0.472222
vt 0.625000 0.472222
vt 0.625000 0.500000
vt 0.375000 0.500000
vt 0.625000 0.583333
vt 0.375000 0.583333
vt 0.375000 0.750000
vt 0.625000 0.750000
vt 0.625000 0.777778
vt 0.375000 0.777778
vt 0.847222 0.250000
vt 0.847222 0.166667
vt 0.875000 0.166667
vt 0.875000 0.250000
vt 0.125000 0.166667
vt 0.152778 0.166667
vt 0.152778 0.250000
vt 0.125000 0.250000
vt 0.625000 0.277778
vt 0.375000 0.277778
vt 0.652778 0.166667
vt 0.652778 0.250000
vt 0.375000 0.972222
vt 0.625000 0.972222
vt 0.625000 1.000000
vt 0.375000 1.000000
vt 0.347222 0.250000
vt 0.347222 0.166667
vt 0.625000 0.305556
vt 0.375000 0.305556
vt 0.680556 0.166667
vt 0.680556 0.250000
vt 0.375000 0.944444
vt 0.625000 0.944444
vt 0.319444 0.250000
vt 0.319444 0.166667
vt 0.625000 0.333333
vt 0.375000 0.333333
vt 0.708333 0.166667
vt 0.708333 0.250000
vt 0.375000 0.916667
vt 0.625000 0.916667
vt 0.291667 0.250000
vt 0.291667 0.166667
vt 0.625000 0.361111
vt 0.375000 0.361111
vt 0.736111 0.166667
vt 0.736111 0.250000
vt 0.375000 0.888889
vt 0.625000 0.888889
vt 0.263889 0.250000
vt 0.263889 0.166667
vt 0.625000 0.388889
vt 0.375000 0.388889
vt 0.763889 0.166667
vt 0.763889 0.250000
vt 0.375000 0.861111
vt 0.625000 0.861111
vt 0.236111 0.250000
vt 0.236111 0.166667
vt 0.625000 0.416667
vt 0.375000 0.416667
vt 0.791667 0.166667
vt 0.791667 0.250000
vt 0.375000 0.833333
vt 0.625000 0.833333
vt 0.208333 0.250000
vt 0.208333 0.166667
vt 0.625000 0.444444
vt 0.375000 0.444444
vt 0.819444 0.166667
vt 0.819444 0.250000
vt 0.375000 0.805556
vt 0.625000 0.805556
vt 0.180556 0.250000
vt 0.180556 0.166667
vt 0.375000 0.000000
vt 0.625000 0.000000
vt 0.625000 0.083333
vt 0.375000 0.083333
vt 0.652778 0.000000
vt 0.652778 0.083333
vt 0.680556 0.083333
vt 0.680556 0.000000
vt 0.708333 0.083333
vt 0.708333 0.000000
vt 0.736111 0.083333
vt 0.736111 0.000000
vt 0.763889 0.083333
vt 0.763889 0.000000
vt 0.791667 0.083333
vt 0.791667 0.000000
vt 0.819444 0.083333
vt 0.819444 0.000000
vt 0.847222 0.083333
vt 0.847222 0.000000
vt 0.875000 0.083333
vt 0.875000 0.000000
vt 0.375000 0.666667
vt 0.625000 0.666667
vt 0.125000 0.000000
vt 0.152778 0.000000
vt 0.152778 0.083333
vt 0.125000 0.083333
vt 0.180556 0.083333
vt 0.180556 0.000000
vt 0.208333 0.083333
vt 0.208333 0.000000
vt 0.236111 0.083333
vt 0.236111 0.000000
vt 0.263889 0.083333
vt 0.263889 0.000000
vt 0.291667 0.083333
vt 0.291667 0.000000
vt 0.319444 0.083333
vt 0.319444 0.000000
vt 0.347222 0.083333
vt 0.347222 0.000000
vn 0.000000 0.000000 1.000000
vn 0.000000 0.000000 1.000000
vn 0.000000 0.000000 1.000000
vn 0.000000 0.000000 1.000000
vn 0.000000 1.000000 0.000000
vn 0.000000 1.000000 0.000000
vn 0.000000 1.000000 0.000000
vn 0.000000 1.000000 0.000000
vn 0.000000 0.000000 -1.000000
vn 0.000000 0.000000 -1.000000
vn 0.000000 0.000000 -1.000000
vn 0.000000 0.000000 -1.000000
vn 0.000000 -1.000000 0.000000
vn 0.000000 -1.000000 0.000000
vn 0.000000 -1.000000 0.000000
vn 0.000000 -1.000000 0.000000
vn 1.000000 0.000000 0.000000
vn 1.000000 0.000000 0.000000
vn 1.000000 0.000000 0.000000
vn 1.000000 0.000000 0.000000
vn -1.000000 0.000000 0.000000
vn -1.000000 0.000000 0.000000
vn -1.000000 0.000000 0.000000
vn -1.000000 0.000000 0.000000
vn 0.000000 1.000000 0.000000
vn 0.000000 1.000000 0.000000
vn 0.000000 1.000000 0.000000
vn 0.000000 1.000000 0.000000
vn 1.000000 0.000000 0.000000
vn 1.000000 0.000000 0.000000
vn 1.000000 0.000000 0.000000
vn 1.000000 0.000000 0.000000
vn 0.000000 -1.000000 0.000000
vn 0.000000 -1.000000 0.000000
vn 0.000000 -1.000000 0.000000
vn 0.000000 -1.000000 0.000000
vn -1.000000 0.000000 0.000000
vn -1.000000 0.000000 0.000000
vn -1.000000 0.000000 0.000000
vn -1.000000 0.000000 0.000000
vn 0.000000 1.000000 0.000000
vn 0.000000 1.000000 0.000000
vn 1.000000 0.000000 0.000000
vn 1.000000 0.000000 0.000000
vn 0.000000 -1.000000 0.000000
vn 0.000000 -1.000000 0.000000
vn -1.000000 0.000000 0.000000
vn -1.000000 0.000000 0.000000
vn 0.000000 1.000000 0.000000
vn 0.000000 1.000000 0.000000
vn 1.000000 0.000000 0.000000
vn 1.000000 0.000000 0.000000
vn 0.000000 -1.000000 0.000000
vn 0.000000 -1.000000 0.000000
vn -1.000000 0.000000 0.000000
vn -1.000000 0.000000 0.000000
vn 0.000000 1.000000 0.000000
vn 0.000000 1.000000 0.000000
vn 1.000000 0.000000 0.000000
vn 1.000000 0.000000 0.000000
vn 0.000000 -1.000000 0.000000
vn 0.000000 -1.000000 0.000000
vn -1.000000 0.000000 0.000000
vn -1.000000 0.000000 0.000000
vn 0.000000 1.000000 0.000000
vn 0.000000 1.000000 0.000000
vn 1.000000 0.000000 0.000000
vn 1.000000 0.000000 0.000000
vn 0.000000 -1.000000 0.000000
vn 0.000000 -1.000000 0.000000
vn -1.000000 0.000000 0.000000
vn -1.000000 0.000000 0.000000
vn 0.000000 1.000000 -0.000000
vn 0.000000 1.000000 -0.000000
vn 1.000000 0.000000 0.000000
vn 1.000000 0.000000 0.000000
vn 0.000000 -1.000000 0.000000
vn 0.000000 -1.000000 0.000000
vn -1.000000 0.000000 0.000000
vn -1.000000 0.000000 0.000000
vn 0.000000 1.000000 -0.000001
vn 0.000000 1.000000 -0.000001
vn 1.000000 0.000000 0.000000
vn 1.000000 0.000000 0.000000
vn 0.000000 -1.000000 0.000000
vn 0.000000 -1.000000 0.000000
vn -1.000000 0.000000 0.000000
vn -1.000000 0.000000 0.000000
vn 0.000000 0.000000 1.000000
vn 0.000000 0.000000 1.000000
vn 0.000000 0.000000 1.000000
vn 0.000000 0.000000 1.000000
vn 1.000000 0.000000 0.000000
vn 1.000000 0.000000 0.000000
vn 1.000000 0.000000 0.000000
vn 1.000000 0.000000 0.000000
vn 1.000000 0.000000 0.000000
vn 1.000000 0.000000 0.000000
vn 1.000000 0.000000 0.000000
vn 1.000000 0.000000 0.000000
vn 1.000000 0.000000 0.000000
vn 1.000000 0.000000 0.000000
vn 1.000000 0.000000 0.000000
vn 1.000000 0.000000 0.000000
vn 1.000000 0.000000 0.000000
vn 1.000000 0.000000 0.000000
vn 1.000000 0.000000 0.000000
vn 1.000000 0.000000 0.000000
vn 1.000000 0.000000 0.000000
vn 1.000000 0.000000 0.000000
vn 1.000000 0.000000 0.000000
vn 1.000000 0.000000 0.000000
vn 0.000000 0.000000 -1.000000
vn 0.000000 0.000000 -1.000000
vn 0.000000 0.000000 -1.000000
vn 0.000000 0.000000 -1.000000
vn -1.000000 0.000000 0.000000
vn -1.000000 0.000000 0.000000
vn -1.000000 0.000000 0.000000
vn -1.000000 0.000000 0.000000
vn -1.000000 0.000000 0.000000
vn -1.000000 0.000000 0.000000
vn -1.000000 0.000000 0.000000
vn -1.000000 0.000000 0.000000
vn -1.000000 0.000000 0.000000
vn -1.000000 0.000000 0.000000
vn -1.000000 0.000000 0.000000
vn -1.000000 0.000000 0.000000
vn -1.000000 0.000000 0.000000
vn -1.000000 0.000000 0.000000
vn -1.000000 0.000000 0.000000
vn -1.000000 0.000000 0.000000
vn -1.000000 0.000000 0.000000
vn -1.000000 0.000000 0.000000
vn -1.000000 0.000000 0.000000
vn -1.000000 0.000000 0.000000
s 1
g polySurface49 Cupboards
usemtl initialShadingGroup
f 61/1/1 62/2/2 4/3/3 3/4/4
s 2
f 37/5/5 38/6/6 6/7/7 5/8/8
s 3
f 5/8/9 6/7/10 71/9/11 72/10/12
s 4
f 7/11/13 8/12/14 39/13/15 40/14/16
s 5
f 38/15/17 70/16/18 71/17/19 6/18/20
s 6
f 72/19/21 73/20/22 37/21/23 5/22/24
s 2
f 3/4/25 4/3/26 10/23/27 9/24/28
s 5
f 62/2/29 63/25/30 10/26/31 4/3/32
s 4
f 12/27/33 11/28/34 2/29/35 1/30/36
s 6
f 9/31/37 80/32/38 61/1/39 3/4/40
s 2
f 9/24/28 10/23/27 14/33/41 13/34/42
s 5
f 10/26/31 63/25/30 64/35/43 14/36/44
s 4
f 16/37/45 15/38/46 11/28/34 12/27/33
s 6
f 13/39/47 79/40/48 80/32/38 9/31/37
s 2
f 13/34/42 14/33/41 18/41/49 17/42/50
s 5
f 14/36/44 64/35/43 65/43/51 18/44/52
s 4
f 20/45/53 19/46/54 15/38/46 16/37/45
s 6
f 17/47/55 78/48/56 79/40/48 13/39/47
s 2
f 17/42/50 18/41/49 22/49/57 21/50/58
s 5
f 18/44/52 65/43/51 66/51/59 22/52/60
s 4
f 24/53/61 23/54/62 19/46/54 20/45/53
s 6
f 21/55/63 77/56/64 78/48/56 17/47/55
s 2
f 21/50/58 22/49/57 26/57/65 25/58/66
s 5
f 22/52/60 66/51/59 67/59/67 26/60/68
s 4
f 28/61/69 27/62/70 23/54/62 24/53/61
s 6
f 25/63/71 76/64/72 77/56/64 21/55/63
s 2
f 25/58/66 26/57/65 30/65/73 29/66/74
s 5
f 26/60/68 67/59/67 68/67/75 30/68/76
s 4
f 32/69/77 31/70/78 27/62/70 28/61/69
s 6
f 29/71/79 75/72/80 76/64/72 25/63/71
s 2
f 29/66/74 30/65/73 34/73/81 33/74/82
s 5
f 30/68/76 68/67/75 69/75/83 34/76/84
s 4
f 36/77/85 35/78/86 31/70/78 32/69/77
s 6
f 33/79/87 74/80/88 75/72/80 29/71/79
s 2
f 33/74/82 34/73/81 38/6/6 37/5/5
s 5
f 34/76/84 69/75/83 70/16/18 38/15/17
s 4
f 40/14/16 39/13/15 35/78/86 36/77/85
s 6
f 37/21/23 73/20/22 74/80/88 33/79/87
s 1
f 1/81/89 2/82/90 42/83/91 41/84/92
s 5
f 2/82/93 11/85/94 43/86/95 42/83/96
f 44/87/97 43/86/95 11/85/94 15/88/98
f 45/89/99 44/87/97 15/88/98 19/90/100
f 46/91/101 45/89/99 19/90/100 23/92/102
f 47/93/103 46/91/101 23/92/102 27/94/104
f 48/95/105 47/93/103 27/94/104 31/96/106
f 49/97/107 48/95/105 31/96/106 35/98/108
f 50/99/109 49/97/107 35/98/108 39/100/110
f 51/101/111 50/99/109 39/100/110 8/102/112
s 3
f 52/103/113 51/104/114 8/12/115 7/11/116
s 6
f 7/105/117 40/106/118 53/107/119 52/108/120
f 54/109/121 53/107/119 40/106/118 36/110/122
f 55/111/123 54/109/121 36/110/122 32/112/124
f 56/113/125 55/111/123 32/112/124 28/114/126
f 57/115/127 56/113/125 28/114/126 24/116/128
f 58/117/129 57/115/127 24/116/128 20/118/130
f 59/119/131 58/117/129 20/118/130 16/120/132
f 60/121/133 59/119/131 16/120/132 12/122/134
f 41/84/135 60/121/133 12/122/134 1/81/136
s 1
f 41/84/92 42/83/91 62/2/2 61/1/1
s 5
f 42/83/96 43/86/95 63/25/30 62/2/29
f 64/35/43 63/25/30 43/86/95 44/87/97
f 65/43/51 64/35/43 44/87/97 45/89/99
f 66/51/59 65/43/51 45/89/99 46/91/101
f 67/59/67 66/51/59 46/91/101 47/93/103
f 68/67/75 67/59/67 47/93/103 48/95/105
f 69/75/83 68/67/75 48/95/105 49/97/107
f 70/16/18 69/75/83 49/97/107 50/99/109
f 71/17/19 70/16/18 50/99/109 51/101/111
s 3
f 72/10/12 71/9/11 51/104/114 52/103/113
s 6
f 52/108/120 53/107/119 73/20/22 72/19/21
f 75/72/80 74/80/88 54/109/121 55/111/123
f 76/64/72 75/72/80 55/111/123 56/113/125
f 78/48/56 77/56/64 57/115/127 58/117/129
f 79/40/48 78/48/56 58/117/129 59/119/131
f 61/1/39 80/32/38 60/121/133 41/84/135
g default
v -0.585859 0.662301 -0.505105
v -0.585859 0.662301 -0.413436
v -0.585859 0.161859 -0.505105
v -0.585859 0.161859 -0.413436
v -0.500000 0.662301 -0.413436
v -0.500000 0.662301 -0.505105
v -0.500000 0.161859 -0.505105
v -0.500000 0.161859 -0.413436
vt 0.180556 0.166667
vt 0.152778 0.166667
vt 0.152778 0.083333
vt 0.180556 0.083333
vt 0.180556 0.166667
vt 0.152778 0.166667
vt 0.152778 0.083333
vt 0.180556 0.083333
vn -1.000000 0.000000 0.000000
vn -1.000000 0.000000 0.000000
vn -1.000000 0.000000 0.000000
vn -1.000000 0.000000 0.000000
vn 0.000000 1.000000 0.000000
vn 0.000000 1.000000 0.000000
vn 0.000000 1.000000 0.000000
vn 0.000000 1.000000 0.000000
vn 0.000000 0.000000 -1.000000
vn 0.000000 0.000000 -1.000000
vn 0.000000 0.000000 -1.000000
vn 0.000000 0.000000 -1.000000
vn 0.000000 -1.000000 0.000000
vn 0.000000 -1.000000 0.000000
vn 0.000000 -1.000000 0.000000
vn 0.000000 -1.000000 0.000000
vn 0.000000 0.000000 1.000000
vn 0.000000 0.000000 1.000000
vn 0.000000 0.000000 1.000000
vn 0.000000 0.000000 1.000000
s off
g Cupboards polySurface50
usemtl initialShadingGroup
f 82/123/137 81/124/138 83/125/139 84/126/140
f 85/127/141 86/128/142 81/124/143 82/123/144
f 86/128/145 87/129/146 83/125/147 81/124/148
f 87/129/149 88/130/150 84/126/151 83/125/152
f 88/130/153 85/127/154 82/123/155 84/126/156
g default
v -0.585859 0.662301 0.552809
v -0.585859 0.662301 0.640282
v -0.585859 0.161859 0.552809
v -0.585859 0.161859 0.640282
v -0.500000 0.662301 0.640282
v -0.500000 0.662301 0.552809
v -0.500000 0.161859 0.552809
v -0.500000 0.161859 0.640282
vt 0.263889 0.166667
vt 0.236111 0.166667
vt 0.236111 0.083333
vt 0.263889 0.083333
vt 0.263889 0.166667
vt 0.236111 0.166667
vt 0.236111 0.083333
vt 0.263889 0.083333
vn -1.000000 0.000000 0.000000
vn -1.000000 0.000000 0.000000
vn -1.000000 0.000000 0.000000
vn -1.000000 0.000000 0.000000
vn 0.000000 1.000000 0.000000
vn 0.000000 1.000000 0.000000
vn 0.000000 1.000000 0.000000
vn 0.000000 1.000000 0.000000
vn 0.000000 0.000000 -1.000000
vn 0.000000 0.000000 -1.000000
vn 0.000000 0.000000 -1.000000
vn 0.000000 0.000000 -1.000000
vn 0.000000 -1.000000 0.000000
vn 0.000000 -1.000000 0.000000
vn 0.000000 -1.000000 0.000000
vn 0.000000 -1.000000 0.000000
vn 0.000000 0.000000 1.000000
vn 0.000000 0.000000 1.000000
vn 0.000000 0.000000 1.000000
vn 0.000000 0.000000 1.000000
s off
g Cupboards polySurface51
usemtl initialShadingGroup
f 90/131/157 89/132/158 91/133/159 92/134/160
f 93/135/161 94/136/162 89/132/163 90/131/164
f 94/136/165 95/137/166 91/133/167 89/132/168
f 95/137/169 96/138/170 92/134/171 91/133/172
f 96/138/173 93/135/174 90/131/175 92/134/176
g default
v -0.585859 0.662301 1.633995
v -0.585859 0.662301 1.715244
v -0.585859 0.161859 1.633995
v -0.585859 0.161859 1.715244
v -0.500000 0.662301 1.715244
v -0.500000 0.662301 1.633995
v -0.500000 0.161859 1.633995
v -0.500000 0.161859 1.715244
vt 0.347222 0.166667
vt 0.319444 0.166667
vt 0.319444 0.083333
vt 0.347222 0.083333
vt 0.347222 0.166667
vt 0.319444 0.166667
vt 0.319444 0.083333
vt 0.347222 0.083333
vn -1.000000 0.000000 0.000000
vn -1.000000 0.000000 0.000000
vn -1.000000 0.000000 0.000000
vn -1.000000 0.000000 0.000000
vn 0.000000 1.000000 0.000000
vn 0.000000 1.000000 0.000000
vn 0.000000 1.000000 0.000000
vn 0.000000 1.000000 0.000000
vn 0.000000 0.000000 -1.000000
vn 0.000000 0.000000 -1.000000
vn 0.000000 0.000000 -1.000000
vn 0.000000 0.000000 -1.000000
vn 0.000000 -1.000000 0.000000
vn 0.000000 -1.000000 0.000000
vn 0.000000 -1.000000 0.000000
vn 0.000000 -1.000000 0.000000
vn 0.000000 0.000000 1.000000
vn 0.000000 0.000000 1.000000
vn 0.000000 0.000000 1.000000
vn 0.000000 0.000000 1.000000
s off
g Cupboards polySurface52
usemtl initialShadingGroup
f 98/139/177 97/140/178 99/141/179 100/142/180
f 101/143/181 102/144/182 97/140/183 98/139/184
f 102/144/185 103/145/186 99/141/187 97/140/188
f 103/145/189 104/146/190 100/142/191 99/141/192
f 104/146/193 101/143/194 98/139/195 100/142/196
