# This file uses centimeters as units for non-parametric coordinates.

mtllib Table.mtl
g default
v -0.827046 1.129605 -1.283409
v -0.827046 1.129605 1.283410
v 0.827046 1.129605 -1.283409
v 0.827046 1.129605 1.283410
v -0.827046 1.129605 1.243035
v 0.827046 1.129605 1.243035
v -0.827046 1.129605 -1.243033
v 0.827046 1.129605 -1.243033
v -0.794211 1.129605 -1.283409
v -0.794211 1.129605 1.283410
v 0.794210 1.129605 -1.283409
v 0.794210 1.129605 1.283410
v -0.849157 1.168682 -1.315468
v -0.849157 1.168682 -1.283409
v -0.827046 1.168682 -1.315468
v -0.849157 1.168682 -1.243033
v -0.849157 1.168682 1.283410
v -0.849157 1.168682 1.315468
v -0.827046 1.168682 1.315468
v 0.827046 1.168682 -1.315468
v 0.794210 1.168682 -1.315468
v 0.794210 1.168682 1.315468
v 0.827046 1.168682 1.315468
v 0.849156 1.168682 -1.283409
v 0.849156 1.168682 -1.315468
v 0.849156 1.168682 -1.243033
v 0.849156 1.168682 1.315468
v 0.849156 1.168682 1.283410
v -0.849157 1.168682 1.243035
v 0.849156 1.168682 1.243035
v 0.794209 1.173476 -1.243033
v 0.794209 1.173476 1.243035
v -0.794211 1.168682 -1.315468
v -0.794211 1.173476 1.243035
v -0.794211 1.173476 -1.243033
v -0.794211 1.168682 1.315468
vt 0.425000 0.450000
vt 0.425000 0.400000
vt 0.475000 0.400000
vt 0.475000 0.450000
vt 0.425000 0.383333
vt 0.475000 0.383333
vt 0.425000 0.350000
vt 0.425000 0.300000
vt 0.475000 0.300000
vt 0.475000 0.350000
vt 0.508333 0.450000
vt 0.508333 0.400000
vt 0.525000 0.400000
vt 0.525000 0.450000
vt 0.508333 0.383333
vt 0.525000 0.383333
vt 0.508333 0.350000
vt 0.508333 0.300000
vt 0.525000 0.300000
vt 0.525000 0.350000
vt 0.575000 0.400000
vt 0.575000 0.450000
vt 0.575000 0.383333
vt 0.575000 0.300000
vt 0.575000 0.350000
vt 0.475000 0.366667
vt 0.425000 0.366667
vt 0.525000 0.366667
vt 0.508333 0.366667
vt 0.575000 0.366667
vt 0.491667 0.400000
vt 0.491667 0.450000
vt 0.491667 0.383333
vt 0.491667 0.366667
vt 0.491667 0.350000
vt 0.491667 0.300000
vn 0.602342 0.681619 0.415427
vn 0.799012 0.580565 0.156602
vn 0.234009 0.954452 0.185097
vn 0.246891 0.694291 0.676021
vn 0.870341 0.492449 0.000000
vn -0.080593 0.996734 -0.005172
vn 0.799012 0.580564 -0.156607
vn 0.602338 0.681617 -0.415435
vn 0.246888 0.694284 -0.676030
vn 0.234009 0.954451 -0.185103
vn 0.000000 0.634257 0.773122
vn 0.007528 0.998174 -0.059930
vn -0.234005 0.954453 0.185098
vn -0.246886 0.694291 0.676023
vn 0.559362 0.747810 -0.357624
vn 0.080591 0.996734 -0.005172
vn 0.007528 0.998174 0.059931
vn 0.000000 0.634249 -0.773129
vn -0.246883 0.694285 -0.676031
vn -0.234005 0.954452 -0.185103
vn -0.799007 0.580571 0.156603
vn -0.602336 0.681623 0.415428
vn -0.870338 0.492456 -0.000000
vn -0.602333 0.681621 -0.415437
vn -0.799007 0.580571 -0.156608
vn -0.080592 0.996734 0.005172
vn 0.870341 0.492449 0.000000
vn 0.080591 0.996734 0.005172
vn 0.559367 0.747804 0.357628
vn -0.870338 0.492455 0.000000
vn -0.007528 0.998174 -0.059930
vn 0.000000 0.634257 0.773122
vn -0.559367 0.747804 -0.357627
vn -0.559372 0.747799 0.357630
vn -0.007528 0.998174 0.059932
vn 0.000000 0.634249 -0.773129
s 1
g polySurface14 Table
usemtl initialShadingGroup
f 13/1/1 14/2/2 1/3/3 15/4/4
f 14/2/2 16/5/5 7/6/6 1/3/3
f 17/7/7 18/8/8 19/9/9 2/10/10
f 21/11/11 11/12/12 3/13/13 20/14/14
f 11/12/12 31/15/15 8/16/16 3/13/13
f 12/17/17 22/18/18 23/19/19 4/20/20
f 20/14/14 3/13/13 24/21/21 25/22/22
f 3/13/13 8/16/16 26/23/23 24/21/21
f 4/20/20 23/19/19 27/24/24 28/25/25
f 5/26/26 29/27/27 17/7/7 2/10/10
f 6/28/28 32/29/29 12/17/17 4/20/20
f 30/30/30 6/28/28 4/20/20 28/25/25
f 7/6/6 16/5/5 29/27/27 5/26/26
f 8/16/16 31/15/15 32/29/29 6/28/28
f 26/23/23 8/16/16 6/28/28 30/30/30
f 15/4/4 1/3/3 9/31/31 33/32/32
f 1/3/3 7/6/6 35/33/33 9/31/31
f 34/34/34 35/33/33 7/6/6 5/26/26
f 10/35/35 34/34/34 5/26/26 2/10/10
f 2/10/10 19/9/9 36/36/36 10/35/35
f 33/32/32 9/31/31 11/12/12 21/11/11
f 9/31/31 35/33/33 31/15/15 11/12/12
f 12/17/17 32/29/29 34/34/34 10/35/35
f 10/35/35 36/36/36 22/18/18 12/17/17
g default
v -1.000000 0.000000 1.500000
v 1.000000 0.000000 1.500000
v -1.000000 1.168682 1.500000
v 1.000000 1.168682 1.500000
v -1.000000 1.168682 -1.500000
v 1.000000 1.168682 -1.500000
v -1.000000 0.000000 -1.500000
v 1.000000 0.000000 -1.500000
v -1.000000 1.168682 1.315468
v 1.000000 1.168682 1.315468
v 1.000000 0.000000 1.315468
v -1.000000 0.000000 1.315468
v -1.000000 1.168682 1.283410
v 1.000000 1.168682 1.283410
v 1.000000 0.889818 1.283410
v -1.000000 0.889818 1.283410
v -1.000000 1.168682 -1.283409
v 1.000000 1.168682 -1.283409
v 1.000000 0.889818 -1.283409
v -1.000000 0.889818 -1.283409
v -1.000000 1.168682 -1.315468
v 1.000000 1.168682 -1.315468
v 1.000000 0.000000 -1.315468
v -1.000000 0.000000 -1.315468
v -0.849157 0.000000 1.500000
v -0.849157 0.000000 1.315468
v -0.849157 0.889818 1.283410
v -0.849157 0.889818 -1.283409
v -0.849157 0.000000 -1.315468
v -0.849157 0.000000 -1.500000
v -0.849157 1.168682 -1.500000
v -0.849157 1.168682 -1.315468
v -0.849157 1.168682 -1.283409
v -0.849157 1.168682 1.283410
v -0.849157 1.168682 1.315468
v -0.849157 1.168682 1.500000
v -0.827046 0.882434 1.500000
v -0.827046 0.882434 1.315468
v -0.827046 0.889818 1.283410
v -0.827046 0.889818 -1.283409
v -0.827046 0.882434 -1.315468
v -0.827046 0.882434 -1.500000
v -0.827046 1.168682 -1.500000
v -0.827046 1.168682 -1.315468
v -0.827046 1.168682 1.315468
v -0.827046 1.168682 1.500000
v 0.827046 0.882434 1.500000
v 0.827046 0.882434 1.315468
v 0.827046 0.889818 1.283410
v 0.827046 0.889818 -1.283409
v 0.827046 0.882434 -1.315468
v 0.827046 0.882434 -1.500000
v 0.827046 1.168682 -1.500000
v 0.827046 1.168682 -1.315468
v 0.827046 1.168682 1.315468
v 0.827046 1.168682 1.500000
v 0.849156 0.000000 1.500000
v 0.849156 0.000000 1.315468
v 0.849156 0.889818 1.283410
v 0.849156 0.889818 -1.283409
v 0.849156 0.000000 -1.315468
v 0.849156 0.000000 -1.500000
v 0.849156 1.168682 -1.500000
v 0.849156 1.168682 -1.315468
v 0.849156 1.168682 -1.283409
v 0.849156 1.168682 1.283410
v 0.849156 1.168682 1.315468
v 0.849156 1.168682 1.500000
v -0.926746 1.168682 1.272468
v -0.849157 1.168682 1.243035
v 0.849156 1.168682 1.243035
v 0.926746 1.168682 1.272468
v 0.926746 0.889818 1.272467
v 0.849156 0.889818 1.243035
v 0.827046 0.889818 1.243035
v -0.827046 0.889818 1.243035
v -0.849157 0.889818 1.243035
v -0.926746 0.889818 1.272467
v -0.926746 1.168682 -1.272464
v -0.849157 1.168682 -1.243033
v 0.849156 1.168682 -1.243033
v 0.926746 1.168682 -1.272464
v 0.926746 0.889818 -1.272466
v 0.849156 0.889818 -1.243033
v 0.827046 0.889818 -1.243033
v -0.827046 0.889818 -1.243033
v -0.849157 0.889818 -1.243033
v -0.926746 0.889818 -1.272466
v -0.798047 0.882434 1.445430
v -0.794211 0.882434 1.315468
v -0.794211 0.889818 1.283410
v -0.798047 0.889818 1.197813
v -0.798047 0.889818 -1.197812
v -0.794211 0.889818 -1.283409
v -0.794211 0.882434 -1.315468
v -0.798047 0.882434 -1.445430
v -0.798047 1.168682 -1.445430
v -0.794211 1.168682 -1.315468
v -0.794211 1.173476 -1.243033
v -0.794211 1.173476 1.243035
v -0.794211 1.168682 1.315468
v -0.798047 1.168682 1.445430
v 0.798046 0.882434 1.445430
v 0.794210 0.882434 1.315468
v 0.794210 0.889818 1.283410
v 0.798046 0.889818 1.197813
v 0.798046 0.889818 -1.197812
v 0.794210 0.889818 -1.283409
v 0.794210 0.882434 -1.315468
v 0.798046 0.882434 -1.445430
v 0.798046 1.168682 -1.445430
v 0.794210 1.168682 -1.315468
v 0.794209 1.173476 -1.243033
v 0.794209 1.173476 1.243035
v 0.794210 1.168682 1.315468
v 0.798046 1.168682 1.445430
vt 0.375000 0.000000
vt 0.625000 0.000000
vt 0.375000 0.250000
vt 0.625000 0.250000
vt 0.375000 0.500000
vt 0.625000 0.500000
vt 0.375000 0.750000
vt 0.625000 0.750000
vt 0.375000 1.000000
vt 0.625000 1.000000
vt 0.875000 0.000000
vt 0.875000 0.250000
vt 0.125000 0.000000
vt 0.125000 0.250000
vt 0.325000 0.250000
vt 0.375000 0.300000
vt 0.625000 0.300000
vt 0.675000 0.250000
vt 0.625000 0.950000
vt 0.675000 0.000000
vt 0.325000 0.000000
vt 0.375000 0.950000
vt 0.275000 0.250000
vt 0.375000 0.350000
vt 0.625000 0.350000
vt 0.725000 0.250000
vt 0.625000 0.900000
vt 0.725000 0.000000
vt 0.275000 0.000000
vt 0.375000 0.900000
vt 0.225000 0.250000
vt 0.375000 0.400000
vt 0.625000 0.400000
vt 0.775000 0.250000
vt 0.625000 0.850000
vt 0.775000 0.000000
vt 0.225000 0.000000
vt 0.375000 0.850000
vt 0.175000 0.250000
vt 0.375000 0.450000
vt 0.625000 0.450000
vt 0.825000 0.250000
vt 0.625000 0.800000
vt 0.825000 0.000000
vt 0.175000 0.000000
vt 0.375000 0.800000
vt 0.425000 0.000000
vt 0.425000 1.000000
vt 0.425000 0.950000
vt 0.425000 0.900000
vt 0.425000 0.850000
vt 0.425000 0.800000
vt 0.425000 0.750000
vt 0.425000 0.500000
vt 0.425000 0.450000
vt 0.425000 0.400000
vt 0.425000 0.350000
vt 0.425000 0.300000
vt 0.425000 0.250000
vt 0.475000 0.000000
vt 0.475000 1.000000
vt 0.475000 0.950000
vt 0.475000 0.900000
vt 0.475000 0.850000
vt 0.475000 0.800000
vt 0.475000 0.750000
vt 0.475000 0.500000
vt 0.475000 0.450000
vt 0.475000 0.300000
vt 0.475000 0.250000
vt 0.525000 0.000000
vt 0.525000 1.000000
vt 0.525000 0.950000
vt 0.525000 0.900000
vt 0.525000 0.850000
vt 0.525000 0.800000
vt 0.525000 0.750000
vt 0.525000 0.500000
vt 0.525000 0.450000
vt 0.525000 0.300000
vt 0.525000 0.250000
vt 0.575000 0.000000
vt 0.575000 1.000000
vt 0.575000 0.950000
vt 0.575000 0.900000
vt 0.575000 0.850000
vt 0.575000 0.800000
vt 0.575000 0.750000
vt 0.575000 0.500000
vt 0.575000 0.450000
vt 0.575000 0.400000
vt 0.575000 0.350000
vt 0.575000 0.300000
vt 0.575000 0.250000
vt 0.258333 0.250000
vt 0.375000 0.366667
vt 0.425000 0.366667
vt 0.575000 0.366667
vt 0.625000 0.366667
vt 0.741667 0.250000
vt 0.625000 0.883333
vt 0.741667 0.000000
vt 0.575000 0.883333
vt 0.525000 0.883333
vt 0.475000 0.883333
vt 0.425000 0.883333
vt 0.258333 0.000000
vt 0.375000 0.883333
vt 0.241667 0.250000
vt 0.375000 0.383333
vt 0.425000 0.383333
vt 0.575000 0.383333
vt 0.625000 0.383333
vt 0.758333 0.250000
vt 0.625000 0.866667
vt 0.758333 0.000000
vt 0.575000 0.866667
vt 0.525000 0.866667
vt 0.475000 0.866667
vt 0.425000 0.866667
vt 0.241667 0.000000
vt 0.375000 0.866667
vt 0.491667 0.000000
vt 0.491667 1.000000
vt 0.491667 0.950000
vt 0.491667 0.900000
vt 0.491667 0.883333
vt 0.491667 0.866667
vt 0.491667 0.850000
vt 0.491667 0.800000
vt 0.491667 0.750000
vt 0.491667 0.500000
vt 0.491667 0.450000
vt 0.491667 0.383333
vt 0.491667 0.366667
vt 0.491667 0.300000
vt 0.491667 0.250000
vt 0.508333 0.000000
vt 0.508333 1.000000
vt 0.508333 0.950000
vt 0.508333 0.900000
vt 0.508333 0.883333
vt 0.508333 0.866667
vt 0.508333 0.850000
vt 0.508333 0.800000
vt 0.508333 0.750000
vt 0.508333 0.500000
vt 0.508333 0.450000
vt 0.508333 0.383333
vt 0.508333 0.366667
vt 0.508333 0.300000
vt 0.508333 0.250000
vn 0.000000 0.000000 1.000000
vn 0.000000 0.000000 1.000000
vn 0.000000 0.000000 1.000000
vn 0.000000 0.000000 1.000000
vn 0.000000 1.000000 0.000000
vn 0.000000 1.000000 0.000000
vn 0.000000 1.000000 0.000000
vn 0.000000 1.000000 0.000000
vn 0.000000 0.000000 -1.000000
vn 0.000000 0.000000 -1.000000
vn 0.000000 0.000000 -1.000000
vn 0.000000 0.000000 -1.000000
vn -0.760264 -0.171459 0.626578
vn -0.981329 -0.192337 0.000000
vn 0.000000 -1.000000 0.000000
vn 0.000000 -0.236505 0.971630
vn 1.000000 0.000000 0.000000
vn 1.000000 0.000000 0.000000
vn 1.000000 0.000000 0.000000
vn 1.000000 0.000000 0.000000
vn -1.000000 0.000000 0.000000
vn -1.000000 0.000000 0.000000
vn -1.000000 0.000000 0.000000
vn -1.000000 0.000000 0.000000
vn 0.000000 1.000000 0.000000
vn 0.000000 1.000000 0.000000
vn 0.000000 1.000000 0.000000
vn 0.000000 1.000000 0.000000
vn 1.000000 0.000000 0.000000
vn 1.000000 0.000000 0.000000
vn 1.000000 0.000000 0.000000
vn 1.000000 0.000000 0.000000
vn -0.981329 -0.192337 -0.000000
vn -0.760264 -0.171458 -0.626579
vn 0.000000 -0.236504 -0.971631
vn 0.000000 -1.000000 0.000000
vn -1.000000 0.000000 0.000000
vn -1.000000 0.000000 0.000000
vn -1.000000 0.000000 0.000000
vn -1.000000 0.000000 0.000000
vn 0.000000 1.000000 0.000001
vn 0.000000 1.000000 0.000000
vn 0.923775 0.000001 -0.382936
vn 0.789235 0.000001 -0.614091
vn -0.097478 -0.060846 -0.993376
vn 0.000000 -0.037128 -0.999311
vn -0.789236 0.000001 -0.614090
vn -0.923775 0.000001 -0.382935
vn 0.000000 1.000000 0.000000
vn 0.000000 1.000000 0.000000
vn 0.000000 1.000000 0.000000
vn 0.000000 1.000000 0.000000
vn 0.999590 -0.000000 0.028649
vn 0.999590 -0.000000 0.028649
vn 0.923777 -0.000002 0.382930
vn 0.789242 -0.000002 0.614082
vn 0.000000 -1.000000 0.000000
vn 0.000000 -1.000000 0.000000
vn -0.097480 -0.060847 0.993376
vn 0.000000 -0.037128 0.999310
vn -0.789241 -0.000002 0.614083
vn -0.923777 -0.000002 0.382931
vn -0.999590 -0.000000 0.028649
vn -0.999590 -0.000000 0.028649
vn 0.000000 -0.236504 -0.971631
vn 0.760264 -0.171458 -0.626578
vn 0.981329 -0.192337 0.000000
vn 0.000000 -1.000000 0.000000
vn 0.000000 -0.037128 -0.999311
vn 0.097479 -0.060846 -0.993376
vn 0.000000 -0.037128 0.999310
vn 0.097480 -0.060847 0.993376
vn 0.000000 -1.000000 -0.000000
vn 0.000000 -1.000000 -0.000000
vn 0.000000 -0.236504 0.971630
vn 0.760265 -0.171458 0.626578
vn 0.000000 -1.000000 0.000000
vn 0.981329 -0.192337 0.000000
vn 0.000000 0.000000 -1.000000
vn 0.000000 0.000000 -1.000000
vn 0.000000 0.000000 -1.000000
vn 0.000000 0.000000 -1.000000
vn 0.000000 1.000000 0.000000
vn 0.000000 1.000000 0.000000
vn 0.000000 1.000000 0.000000
vn 0.000000 1.000000 0.000000
vn 0.000000 1.000000 0.000000
vn 0.000000 1.000000 0.000000
vn 0.000000 1.000000 0.000000
vn 0.000000 1.000000 0.000000
vn 0.000000 1.000000 0.000000
vn 0.000000 1.000000 0.000000
vn 0.000000 1.000000 0.000000
vn 0.000000 1.000000 0.000000
vn 0.000000 1.000000 0.000000
vn 0.000000 1.000000 0.000000
vn 0.000000 0.000000 1.000000
vn 0.000000 0.000000 1.000000
vn 0.000000 0.000000 1.000000
vn 0.000000 0.000000 1.000000
vn 0.995305 -0.059599 -0.076268
vn 0.999290 -0.037683 0.000000
vn 0.784725 -0.257694 -0.563738
vn 0.000000 -1.000000 -0.000000
vn 0.784728 -0.257696 0.563733
vn 0.995305 -0.059599 0.076267
vn 0.999290 -0.037683 0.000000
vn 0.539394 0.000000 -0.842053
vn 0.361083 0.000000 -0.932534
vn 0.000000 1.000000 0.000000
vn 0.000000 1.000000 0.000000
vn 0.000000 1.000000 0.000000
vn 0.000000 1.000000 0.000000
vn 0.361083 0.000000 0.932534
vn 0.539394 0.000000 0.842053
vn 0.000000 -1.000000 0.000000
vn 0.000000 -0.999014 -0.044389
vn -0.995305 -0.059600 -0.076269
vn -0.999290 -0.037684 -0.000000
vn 0.000000 -0.998140 -0.060962
vn -0.784721 -0.257698 -0.563741
vn 0.000000 -1.000000 0.000000
vn 0.000000 -1.000000 0.000000
vn 0.000000 -0.998140 0.060962
vn -0.784724 -0.257700 0.563736
vn 0.000000 -0.999014 0.044389
vn -0.995305 -0.059600 0.076268
vn 0.000000 -1.000000 0.000000
vn -0.999290 -0.037684 0.000000
vn -0.033561 0.000000 -0.999437
vn -0.033561 0.000000 -0.999437
vn -0.539387 0.000000 -0.842058
vn -0.361078 0.000000 -0.932535
vn 0.000000 1.000000 -0.000001
vn 0.000000 1.000000 -0.000001
vn 0.000000 1.000000 0.000000
vn 0.000000 1.000000 0.000000
vn 0.000000 1.000000 0.000001
vn 0.000000 1.000000 0.000001
vn 0.000000 1.000000 0.000000
vn 0.000000 1.000000 0.000000
vn -0.033561 0.000000 0.999437
vn -0.033561 0.000000 0.999437
vn -0.361078 0.000000 0.932535
vn -0.539387 0.000000 0.842058
vn 0.000000 1.000000 0.000000
vn 0.000000 1.000000 0.000000
vn 0.000000 1.000000 0.000000
vn 0.000000 1.000000 0.000000
vn 0.999590 -0.000000 -0.028649
vn 0.999590 -0.000000 -0.028649
vn 0.000000 -1.000000 0.000000
vn 0.000000 -1.000000 0.000000
vn 0.000000 -1.000000 0.000000
vn 0.000000 -1.000000 0.000000
vn 0.000000 -1.000000 0.000000
vn 0.000000 -1.000000 0.000000
vn 0.000000 -1.000000 0.000000
vn -0.999590 -0.000000 -0.028649
vn -0.999590 -0.000000 -0.028649
vn 0.000000 -0.999014 -0.044389
vn 0.000000 -1.000000 0.000000
vn 0.000000 -0.998140 -0.060962
vn 0.000000 -1.000000 -0.000000
vn 0.000000 -1.000000 -0.000000
vn 0.000000 -0.998140 0.060962
vn 0.000000 -0.999014 0.044389
vn 0.000000 -1.000000 0.000000
vn 0.033561 0.000000 -0.999437
vn 0.033561 0.000000 -0.999437
vn 0.000000 1.000000 -0.000001
vn 0.000000 1.000000 -0.000001
vn 0.000000 1.000000 0.000001
vn 0.000000 1.000000 0.000001
vn 0.033561 0.000000 0.999437
vn 0.033561 0.000000 0.999437
vn 0.000000 1.000000 0.000000
vn 0.000000 1.000000 0.000000
vn 0.000000 1.000000 0.000000
vn 0.000000 1.000000 0.000000
s 1
g Table polySurface15
usemtl initialShadingGroup
f 104/130/37 93/118/38 38/38/39 40/40/40
s 2
f 99/125/41 100/126/42 58/77/43 42/42/44
s 3
f 98/124/45 99/125/46 42/42/47 44/44/48
s 4
f 97/123/49 98/124/50 44/44/51 59/79/52
s 5
f 58/78/53 59/80/54 44/47/55 42/48/56
s 6
f 43/49/57 60/81/58 57/75/59 41/50/60
s 2
f 103/129/61 104/130/62 40/40/63 46/53/64
s 5
f 38/38/65 47/56/66 46/54/67 40/40/68
s 4
f 93/119/69 94/120/70 47/55/71 38/46/72
s 6
f 45/51/73 48/57/74 37/37/75 39/39/76
s 2
f 102/128/77 103/129/61 46/53/64 50/61/78
s 5
f 46/54/67 47/56/66 51/64/79 50/62/80
s 4
f 94/120/70 95/121/81 51/63/82 47/55/71
s 6
f 49/59/83 52/65/84 48/57/74 45/51/73
s 2
f 101/127/85 117/148/86 118/149/87 54/69/88
s 5
f 118/150/89 119/152/90 55/72/91 54/70/92
s 4
f 119/151/93 120/153/94 96/122/95 55/71/96
s 6
f 53/67/97 56/73/98 124/157/99 115/145/100
s 2
f 100/126/42 101/127/85 54/69/88 58/77/43
s 5
f 54/70/92 55/72/91 59/80/54 58/78/53
s 4
f 96/122/95 97/123/49 59/79/52 55/71/96
s 6
f 57/75/59 60/81/58 56/73/98 53/67/97
s 4
f 48/58/101 62/85/102 61/84/103 37/45/104
f 52/66/105 63/86/106 62/85/102 48/58/101
f 56/74/107 64/87/108 123/156/109 124/158/110
f 60/82/111 65/88/112 64/87/108 56/74/107
f 43/43/113 66/89/114 65/88/112 60/82/111
s 3
f 41/41/115 67/90/116 66/89/117 43/43/118
s 2
f 57/76/119 68/91/120 67/90/121 41/41/122
f 53/68/123 69/92/124 68/91/120 57/76/119
f 115/146/125 116/147/126 69/92/124 53/68/123
f 45/52/127 71/94/128 70/93/129 49/60/130
f 39/39/131 72/95/132 71/94/128 45/52/127
s 1
f 37/37/133 61/83/134 72/95/135 39/39/136
s 4
f 61/84/103 62/85/102 74/98/137 73/97/138
f 62/85/102 63/86/106 75/99/139 74/98/137
f 122/155/140 123/156/109 64/87/108 76/100/141
f 64/87/108 65/88/112 77/101/142 76/100/141
f 65/88/112 66/89/114 78/102/143 77/101/142
s 3
f 66/89/117 67/90/116 79/103/144 78/102/145
s 2
f 67/90/121 68/91/120 80/104/146 79/103/147
f 71/94/128 72/95/132 82/106/148 81/105/149
s 1
f 72/95/135 61/83/134 73/96/150 82/106/151
s 4
f 139/175/152 140/176/153 84/109/154 83/108/155
f 140/176/153 141/177/156 85/110/157 84/109/154
f 121/154/158 143/179/159 144/180/160 86/111/161
f 144/180/160 145/181/162 87/112/163 86/111/161
f 145/181/162 146/182/164 88/113/165 87/112/163
s 3
f 146/182/166 147/183/167 89/114/168 88/113/169
s 2
f 147/183/170 148/184/171 90/115/172 89/114/173
f 151/187/174 152/188/175 92/117/176 91/116/177
s 1
f 152/188/178 139/174/179 83/107/180 92/117/181
s 4
f 83/108/155 84/109/154 94/120/70 93/119/69
f 84/109/154 85/110/157 95/121/81 94/120/70
f 120/153/94 121/154/158 86/111/161 96/122/95
f 86/111/161 87/112/163 97/123/49 96/122/95
f 87/112/163 88/113/165 98/124/50 97/123/49
s 3
f 88/113/169 89/114/168 99/125/46 98/124/45
s 2
f 89/114/173 90/115/172 100/126/42 99/125/41
f 91/116/177 92/117/176 104/130/62 103/129/61
s 1
f 92/117/181 83/107/180 93/118/38 104/130/37
s 2
f 49/60/130 70/93/129 106/133/182 105/132/183
f 108/135/184 107/134/185 102/128/77 50/61/78
s 5
f 50/62/80 51/64/79 109/138/186 108/136/187
s 4
f 95/121/81 110/139/188 109/137/189 51/63/82
f 85/110/157 111/140/190 110/139/188 95/121/81
f 141/177/156 142/178/191 111/140/190 85/110/157
f 63/86/106 113/142/192 112/141/193 75/99/139
f 114/144/194 113/142/192 63/86/106 52/66/105
s 6
f 105/131/195 114/143/196 52/65/84 49/59/83
s 2
f 105/132/183 106/133/182 116/147/126 115/146/125
f 118/149/87 117/148/86 107/134/185 108/135/184
s 5
f 108/136/187 109/138/186 119/152/90 118/150/89
s 4
f 109/137/189 110/139/188 120/153/94 119/151/93
f 110/139/188 111/140/190 121/154/158 120/153/94
f 111/140/190 142/178/191 143/179/159 121/154/158
f 112/141/193 113/142/192 123/156/109 122/155/140
f 124/158/110 123/156/109 113/142/192 114/144/194
s 6
f 115/145/100 124/157/99 114/143/196 105/131/195
s 4
f 73/97/138 74/98/137 126/161/197 125/160/198
f 74/98/137 75/99/139 127/162/199 126/161/197
f 75/99/139 112/141/193 128/163/200 127/162/199
f 129/164/201 128/163/200 112/141/193 122/155/140
f 130/165/202 129/164/201 122/155/140 76/100/141
f 76/100/141 77/101/142 131/166/203 130/165/202
f 77/101/142 78/102/143 132/167/204 131/166/203
s 3
f 78/102/145 79/103/144 133/168/205 132/167/206
s 2
f 79/103/147 80/104/146 134/169/207 133/168/208
f 81/105/149 82/106/148 138/173/209 137/172/210
s 1
f 82/106/151 73/96/150 125/159/211 138/173/212
s 4
f 125/160/198 126/161/197 140/176/153 139/175/152
f 126/161/197 127/162/199 141/177/156 140/176/153
f 127/162/199 128/163/200 142/178/191 141/177/156
f 143/179/159 142/178/191 128/163/200 129/164/201
f 144/180/160 143/179/159 129/164/201 130/165/202
f 130/165/202 131/166/203 145/181/162 144/180/160
f 131/166/203 132/167/204 146/182/164 145/181/162
s 3
f 132/167/206 133/168/205 147/183/167 146/182/166
s 2
f 133/168/208 134/169/207 148/184/171 147/183/170
s off
f 150/186/213 149/185/214 135/170/215 136/171/216
s 2
f 137/172/210 138/173/209 152/188/175 151/187/174
s 1
f 138/173/212 125/159/211 139/174/179 152/188/178
